<svg version="1.1" id="Layer_1" xmlns="http://www.w3.org/2000/svg" xmlns:xlink="http://www.w3.org/1999/xlink" x="0px" y="0px"
	 width="100%" viewBox="0 0 512 512" enable-background="new 0 0 512 512" xml:space="preserve">
<path fill="#000000" opacity="1.000000" stroke="none" 
	d="
M513.000000,196.000000 
	C513.000000,301.974243 513.000000,407.448486 513.000000,512.961365 
	C342.400757,512.961365 171.801483,512.961365 1.101111,512.961365 
	C1.101111,342.442444 1.101111,171.884827 1.101111,1.163595 
	C171.666534,1.163595 342.333252,1.163595 513.000000,1.163595 
	C513.000000,65.865143 513.000000,130.682571 513.000000,196.000000 
M502.099731,239.109863 
	C501.072968,233.559158 500.125793,227.992340 499.005432,222.460571 
	C494.621246,200.814255 490.182373,179.179016 485.821686,156.873047 
	C485.374451,155.816849 485.065948,154.672577 484.459534,153.717422 
	C471.912354,133.953522 459.432861,114.145256 446.698639,94.502251 
	C442.562500,88.122078 437.742584,82.185188 432.880005,75.436333 
	C431.856567,74.593132 430.890839,73.665634 429.801178,72.919106 
	C405.079773,55.982544 380.443054,38.918407 355.507568,22.302647 
	C351.724518,19.781788 346.542023,19.361073 341.363129,17.562239 
	C316.582794,12.128937 291.456573,8.454851 266.150574,9.318987 
	C241.103516,10.174279 216.124908,13.213105 191.136688,15.515796 
	C182.387848,16.322010 173.699722,17.787195 164.178360,18.899504 
	C161.590744,19.832781 158.663940,20.271082 156.468018,21.775940 
	C134.639008,36.735390 112.949295,51.897911 91.178757,66.943054 
	C82.985847,72.604988 76.100716,79.458649 70.902641,87.996689 
	C60.517273,105.055077 49.948441,122.003563 39.737877,139.165512 
	C36.612797,144.418167 34.409317,150.219131 31.365839,156.353088 
	C28.406946,166.563492 24.984583,176.666550 22.589319,187.007492 
	C18.126001,206.276779 14.260278,225.684494 9.838811,245.728088 
	C9.692532,246.866730 9.283392,248.042755 9.439234,249.138428 
	C11.944873,266.754425 13.891070,284.479919 17.203053,301.945679 
	C26.832779,352.728027 50.823433,395.595154 89.989899,429.545319 
	C108.724953,445.785126 127.993019,461.411560 147.106766,477.210419 
	C148.832321,478.636658 151.096771,479.695251 153.281601,480.238892 
	C185.563080,488.271454 217.867691,496.211639 250.192169,504.069427 
	C252.019470,504.513611 254.066223,504.055054 256.609070,504.042358 
	C257.383850,503.918640 258.158600,503.794891 259.820435,503.586029 
	C283.920624,498.617737 308.020813,493.649414 332.861786,488.609131 
	C373.706116,477.730072 406.682281,454.710846 434.483246,422.814545 
	C434.677734,422.391510 434.872223,421.968445 435.724731,421.272522 
	C450.081482,406.324921 459.902283,388.169678 471.737549,370.672150 
	C474.734589,366.273499 477.908630,361.982391 480.668488,357.439667 
	C482.622375,354.223602 484.865417,350.821930 485.518463,347.237000 
	C489.093933,327.608551 492.217896,307.897858 495.785187,287.531982 
	C498.170258,277.349884 500.357025,267.115631 503.015991,257.005585 
	C504.567200,251.107468 504.152283,245.540512 502.099731,239.109863 
z"/>
<path fill="#05067A" opacity="1.000000" stroke="none" 
	d="
M256.010834,504.016632 
	C254.066223,504.055054 252.019470,504.513611 250.192169,504.069427 
	C217.867691,496.211639 185.563080,488.271454 153.281601,480.238892 
	C151.096771,479.695251 148.832321,478.636658 147.106766,477.210419 
	C127.993019,461.411560 108.724953,445.785126 89.989899,429.545319 
	C50.823433,395.595154 26.832779,352.728027 17.203053,301.945679 
	C13.891070,284.479919 11.944873,266.754425 9.439234,249.138428 
	C9.283392,248.042755 9.692532,246.866730 10.343267,245.342331 
	C12.229114,244.633484 13.610503,244.310394 15.220037,244.161438 
	C15.973297,244.557648 16.498415,244.779724 17.082237,245.372833 
	C18.087126,250.715302 21.834063,250.036163 25.327402,249.754562 
	C37.215458,248.796204 49.100605,247.801804 61.062840,247.188782 
	C61.558270,248.633453 61.902199,249.747452 62.408443,250.782013 
	C70.990578,268.320496 79.553444,285.868744 88.249619,303.350616 
	C89.153198,305.167084 90.874580,306.576752 92.185333,308.480103 
	C92.106766,309.190857 92.059372,309.596741 92.047379,310.387817 
	C92.614418,312.687897 92.964035,314.676544 93.705681,316.506287 
	C101.680473,336.181030 109.644768,355.860809 117.792702,375.464081 
	C119.607536,379.830444 122.128105,383.903503 124.178192,388.425201 
	C122.895782,390.166077 121.817024,391.644531 120.612206,393.011932 
	C114.786377,399.623871 108.915688,406.196320 103.085373,412.804382 
	C101.244873,414.890411 100.191452,417.563599 102.904663,419.193848 
	C104.272911,420.015961 106.913177,418.833008 108.937622,418.376404 
	C109.477882,418.254517 109.888969,417.486298 110.324493,416.984558 
	C119.914749,405.934631 129.820724,395.139282 139.006500,383.762543 
	C150.904877,369.026184 162.228317,353.825623 173.843109,339.301147 
	C174.955978,361.376007 175.778488,382.990845 177.197296,404.566528 
	C177.915131,415.482483 179.710815,426.327606 181.119720,437.518677 
	C184.146835,440.721680 186.966125,443.729797 190.018951,446.478577 
	C201.604523,456.910370 213.178253,467.358429 224.924850,477.607361 
	C235.169067,486.545441 245.640060,495.223602 256.010834,504.016632 
z"/>
<path fill="#05067A" opacity="1.000000" stroke="none" 
	d="
M31.783796,155.768997 
	C34.409317,150.219131 36.612797,144.418167 39.737877,139.165512 
	C49.948441,122.003563 60.517273,105.055077 70.902641,87.996689 
	C76.100716,79.458649 82.985847,72.604988 91.178757,66.943054 
	C112.949295,51.897911 134.639008,36.735390 156.468018,21.775940 
	C158.663940,20.271082 161.590744,19.832781 164.763382,19.211479 
	C166.684402,20.755493 167.914337,22.132830 169.372620,23.197348 
	C185.896255,35.259209 202.475769,47.244518 218.997849,59.308502 
	C233.889969,70.182312 248.729431,81.128220 263.654724,92.465195 
	C264.116699,95.565773 264.516113,98.243492 264.535706,100.968842 
	C259.887665,102.378746 255.619446,103.741028 251.083923,104.924088 
	C248.390747,104.675415 245.620087,103.803581 243.597427,104.672615 
	C233.780869,108.890327 224.164841,113.574783 214.098572,117.960335 
	C196.489059,111.938431 179.261200,106.042946 162.027298,100.165222 
	C155.000717,97.768776 147.960983,95.410904 140.955582,93.016289 
	C140.983917,92.997108 141.018265,93.056305 140.834137,92.859436 
	C140.366043,92.441612 140.082077,92.220673 139.519440,91.832092 
	C133.141922,84.625435 127.059067,77.572449 120.934471,70.555901 
	C119.098465,68.452515 116.550247,67.128281 114.632271,69.675323 
	C113.666061,70.958427 114.398682,73.739395 114.812805,75.750443 
	C115.017616,76.745041 116.245598,77.525993 117.002945,78.410202 
	C134.097885,98.368706 151.148865,118.365189 168.336792,138.243256 
	C170.639740,140.906647 171.523178,143.172943 168.551239,146.005402 
	C147.560349,146.671661 127.037598,147.382690 106.511543,147.980286 
	C100.544296,148.154022 94.565872,147.925278 88.596474,148.057205 
	C87.123444,148.089767 85.665649,148.811905 84.119766,149.595184 
	C83.653885,151.759354 83.306023,153.554306 82.878426,155.330032 
	C79.692238,168.561584 76.490257,181.789337 72.987061,194.853851 
	C59.048531,181.715958 45.416164,168.742477 31.783796,155.768997 
z"/>
<path fill="#616ADC" opacity="1.000000" stroke="none" 
	d="
M433.235443,76.045540 
	C437.742584,82.185188 442.562500,88.122078 446.698639,94.502251 
	C459.432861,114.145256 471.912354,133.953522 484.459534,153.717422 
	C485.065948,154.672577 485.374451,155.816849 485.503174,157.345825 
	C484.132721,158.513809 483.080750,159.209000 481.634949,159.917847 
	C479.488159,160.443466 477.718903,160.905746 475.984680,161.474747 
	C442.027863,172.615921 408.075104,183.769501 373.926270,194.619995 
	C366.702454,178.181290 359.837799,161.968338 352.529999,145.957657 
	C350.704681,141.958511 351.228607,140.089478 354.839539,137.646912 
	C375.772186,123.487335 396.512024,109.042900 417.337830,94.724998 
	C420.706390,92.409088 423.249298,90.012627 419.689453,85.684052 
	C424.329224,82.266243 428.782318,79.155891 433.235443,76.045540 
z"/>
<path fill="#05067A" opacity="1.000000" stroke="none" 
	d="
M433.057739,75.740936 
	C428.782318,79.155891 424.329224,82.266243 419.324036,85.683151 
	C416.375000,86.905548 413.686768,87.395035 411.626099,88.803001 
	C390.411865,103.297577 369.293274,117.932289 348.166321,132.554352 
	C345.773102,134.210709 343.493744,136.055328 340.846100,132.544891 
	C343.276581,106.182213 345.714111,80.286606 348.194489,53.935543 
	C322.858795,68.228386 297.455627,82.559296 271.999786,96.431007 
	C272.652740,82.320763 273.358337,68.669708 274.428467,54.983982 
	C276.451721,54.235382 278.174591,53.640846 279.759430,52.789356 
	C298.746857,42.587933 317.729462,32.377159 336.662537,22.075500 
	C338.611694,21.014942 340.233246,19.352247 342.006805,17.968956 
	C346.542023,19.361073 351.724518,19.781788 355.507568,22.302647 
	C380.443054,38.918407 405.079773,55.982544 429.801178,72.919106 
	C430.890839,73.665634 431.856567,74.593132 433.057739,75.740936 
z"/>
<path fill="#05067A" opacity="1.000000" stroke="none" 
	d="
M471.222412,371.074707 
	C459.902283,388.169678 450.081482,406.324921 435.064636,421.230194 
	C428.902100,415.737823 423.399628,410.287781 418.020264,404.502625 
	C420.092377,400.617859 417.645111,398.626160 415.462189,396.506622 
	C405.304688,386.643951 394.814484,377.093994 385.107086,366.805786 
	C374.617676,355.688782 364.864471,343.877136 355.147095,332.217590 
	C381.744263,320.180542 408.755768,310.483734 436.883667,303.806641 
	C444.816162,319.979370 452.469269,335.858704 460.381775,351.607727 
	C463.713165,358.238495 467.592285,364.594055 471.222412,371.074707 
z"/>
<path fill="#05067A" opacity="1.000000" stroke="none" 
	d="
M332.121002,488.681152 
	C308.020813,493.649414 283.920624,498.617737 259.400574,503.101746 
	C258.999512,495.462372 259.018311,488.307281 259.242157,480.774536 
	C259.661438,479.100311 260.052185,477.805389 260.064087,476.506989 
	C260.366302,443.582001 260.607391,410.656372 260.961823,377.731995 
	C260.979340,376.104919 261.924164,374.487793 262.655579,373.159424 
	C285.233185,393.291290 307.947449,412.680145 333.134827,429.405945 
	C332.794891,449.479523 332.457947,469.080353 332.121002,488.681152 
z"/>
<path fill="#050A66" opacity="1.000000" stroke="none" 
	d="
M341.684967,17.765598 
	C340.233246,19.352247 338.611694,21.014942 336.662537,22.075500 
	C317.729462,32.377159 298.746857,42.587933 279.759430,52.789356 
	C278.174591,53.640846 276.451721,54.235382 274.376892,54.536358 
	C273.953247,51.798447 274.379608,49.353535 273.782013,47.191650 
	C273.398468,45.803986 271.636871,44.162823 270.248779,43.893398 
	C269.189850,43.687859 267.428680,45.229622 266.576599,46.420876 
	C265.895325,47.373306 266.020721,48.963043 265.944885,50.278954 
	C265.142578,64.199036 264.371674,78.120934 263.592102,92.042328 
	C248.729431,81.128220 233.889969,70.182312 218.997849,59.308502 
	C202.475769,47.244518 185.896255,35.259209 169.372620,23.197348 
	C167.914337,22.132830 166.684402,20.755493 165.166138,19.237457 
	C173.699722,17.787195 182.387848,16.322010 191.136688,15.515796 
	C216.124908,13.213105 241.103516,10.174279 266.150574,9.318987 
	C291.456573,8.454851 316.582794,12.128937 341.684967,17.765598 
z"/>
<path fill="#050A66" opacity="1.000000" stroke="none" 
	d="
M259.037109,481.152191 
	C259.018311,488.307281 258.999512,495.462372 258.957031,503.144318 
	C258.158600,503.794891 257.383850,503.918640 256.309937,504.029480 
	C245.640060,495.223602 235.169067,486.545441 224.924850,477.607361 
	C213.178253,467.358429 201.604523,456.910370 190.018951,446.478577 
	C186.966125,443.729797 184.146835,440.721680 181.397278,437.317078 
	C196.284775,423.091705 210.739471,409.092133 225.808090,395.787933 
	C233.983429,388.569855 243.204147,382.535797 252.166321,376.322083 
	C252.470047,382.299103 252.668579,387.922363 252.633209,393.544128 
	C252.459930,421.085266 252.163940,448.625793 252.064743,476.167053 
	C252.046158,481.326385 253.886261,482.404205 259.037109,481.152191 
z"/>
<path fill="#616ADC" opacity="1.000000" stroke="none" 
	d="
M417.897156,404.837738 
	C423.399628,410.287781 428.902100,415.737823 434.735657,421.366638 
	C434.872223,421.968445 434.677734,422.391510 433.800537,422.889038 
	C426.647980,423.310364 420.174286,423.597473 413.709167,424.016663 
	C400.778534,424.855133 387.856903,425.837158 374.923462,426.627319 
	C361.323334,427.458313 347.713715,428.134277 334.082214,428.462463 
	C337.182434,408.403137 340.348328,388.765472 343.418091,369.112823 
	C344.948669,359.314148 346.303406,349.488037 347.783234,339.679749 
	C347.828796,339.685211 347.747192,339.727203 348.059692,339.760071 
	C348.766052,339.678711 349.159882,339.564453 349.806396,339.729309 
	C368.583557,362.298431 388.711792,383.048737 410.035919,402.662750 
	C412.399750,404.837006 414.571228,406.639282 417.897156,404.837738 
z"/>
<path fill="#05067A" opacity="1.000000" stroke="none" 
	d="
M502.110535,239.946884 
	C504.152283,245.540512 504.567200,251.107468 503.015991,257.005585 
	C500.357025,267.115631 498.170258,277.349884 495.225159,287.894012 
	C491.339661,289.260986 488.049316,290.406494 484.682800,291.246857 
	C468.789124,295.214508 452.874634,299.098633 436.844116,302.697388 
	C423.400665,284.608368 410.080688,266.834503 397.186981,248.968872 
	C401.248535,248.593475 404.880310,248.125961 408.519714,248.056335 
	C430.955444,247.627106 453.392670,247.271667 475.830017,246.933380 
	C479.703888,246.874985 482.918823,246.198547 483.142944,241.057098 
	C489.707764,240.531784 495.909149,240.239334 502.110535,239.946884 
z"/>
<path fill="#2327A1" opacity="1.000000" stroke="none" 
	d="
M334.108246,428.877991 
	C347.713715,428.134277 361.323334,427.458313 374.923462,426.627319 
	C387.856903,425.837158 400.778534,424.855133 413.709167,424.016663 
	C420.174286,423.597473 426.647980,423.310364 433.581665,422.997314 
	C406.682281,454.710846 373.706116,477.730072 332.491394,488.645142 
	C332.457947,469.080353 332.794891,449.479523 333.377136,429.393463 
	C333.622375,428.908203 334.108246,428.877991 334.108246,428.877991 
z"/>
<path fill="#050A66" opacity="1.000000" stroke="none" 
	d="
M502.105133,239.528381 
	C495.909149,240.239334 489.707764,240.531784 482.862244,240.787262 
	C479.913879,240.122162 477.606781,238.941528 475.305756,238.953186 
	C456.523132,239.048172 437.741638,239.365738 419.071930,239.313446 
	C419.785645,238.015076 420.286438,236.939026 421.003571,236.034500 
	C437.107941,215.722183 453.212921,195.410248 469.375763,175.144440 
	C473.491882,169.983383 477.805756,164.980011 482.028809,159.904190 
	C483.080750,159.209000 484.132721,158.513809 485.474274,157.679138 
	C490.182373,179.179016 494.621246,200.814255 499.005432,222.460571 
	C500.125793,227.992340 501.072968,233.559158 502.105133,239.528381 
z"/>
<path fill="#050A66" opacity="1.000000" stroke="none" 
	d="
M31.574820,156.061035 
	C45.416164,168.742477 59.048531,181.715958 72.940186,195.269165 
	C72.111366,200.218781 71.023247,204.588684 69.597107,209.048584 
	C68.205788,209.628632 67.075676,210.000290 66.110718,210.626465 
	C51.727951,219.959579 37.352875,229.304825 23.026823,238.724548 
	C21.837536,239.506531 21.014484,240.845520 19.803600,242.084320 
	C19.120783,242.510254 18.655634,242.777573 17.849545,243.061417 
	C16.669699,243.381058 15.830797,243.684189 14.991894,243.987305 
	C13.610503,244.310394 12.229114,244.633484 10.496780,244.995575 
	C14.260278,225.684494 18.126001,206.276779 22.589319,187.007492 
	C24.984583,176.666550 28.406946,166.563492 31.574820,156.061035 
z"/>
<path fill="#050A66" opacity="1.000000" stroke="none" 
	d="
M436.967560,303.012543 
	C452.874634,299.098633 468.789124,295.214508 484.682800,291.246857 
	C488.049316,290.406494 491.339661,289.260986 495.081055,288.235718 
	C492.217896,307.897858 489.093933,327.608551 485.518463,347.237000 
	C484.865417,350.821930 482.622375,354.223602 480.668488,357.439667 
	C477.908630,361.982391 474.734589,366.273499 471.479980,370.873413 
	C467.592285,364.594055 463.713165,358.238495 460.381775,351.607727 
	C452.469269,335.858704 444.816162,319.979370 436.913025,303.674438 
	C436.767792,303.196167 436.967560,303.012543 436.967560,303.012543 
z"/>
<path fill="#010104" opacity="1.000000" stroke="none" 
	d="
M18.190487,243.044907 
	C18.655634,242.777573 19.120783,242.510254 20.225464,242.077454 
	C34.926575,240.560501 48.988152,239.209030 63.474495,237.895187 
	C80.559990,236.102264 97.235466,234.393158 113.873093,232.372406 
	C119.375595,231.704086 124.780556,230.232651 130.461395,228.870941 
	C143.467834,201.077972 156.242996,173.542450 169.018143,146.006943 
	C171.523178,143.172943 170.639740,140.906647 168.336792,138.243256 
	C151.148865,118.365189 134.097885,98.368706 117.002945,78.410202 
	C116.245598,77.525993 115.017616,76.745041 114.812805,75.750443 
	C114.398682,73.739395 113.666061,70.958427 114.632271,69.675323 
	C116.550247,67.128281 119.098465,68.452515 120.934471,70.555901 
	C127.059067,77.572449 133.141922,84.625435 139.651230,92.084724 
	C140.380554,92.688759 140.699402,92.872528 141.018265,93.056305 
	C141.018265,93.056305 140.983917,92.997108 141.041107,93.345978 
	C152.499146,107.100311 163.848572,120.550491 175.393829,133.830399 
	C176.368011,134.950943 179.101288,135.856827 180.262192,135.296890 
	C191.758606,129.751678 203.095642,123.876038 214.477783,118.093918 
	C224.164841,113.574783 233.780869,108.890327 243.597427,104.672615 
	C245.620087,103.803581 248.390747,104.675415 251.099884,105.282288 
	C250.046844,107.809250 249.160995,110.622360 247.294800,111.643089 
	C239.945526,115.662827 232.288071,119.119072 224.401566,122.864395 
	C210.534760,129.607788 196.965164,136.180496 183.530975,143.019180 
	C181.141449,144.235580 178.649658,146.177979 177.358871,148.442734 
	C174.171082,154.035873 171.652893,160.010666 168.620514,166.083618 
	C158.512695,187.739441 148.640289,209.139252 138.828262,230.566711 
	C138.491562,231.301987 138.760010,232.314362 138.834534,233.554871 
	C150.884308,264.378113 162.799255,294.862640 174.902267,325.272308 
	C175.804047,327.538055 178.053940,329.267273 179.923035,331.490936 
	C204.667664,343.117432 229.145660,354.544403 253.721008,365.757965 
	C255.075623,366.376068 257.239044,365.221588 259.369934,364.838715 
	C261.513916,363.929688 263.267090,362.952789 265.121063,362.236908 
	C290.521301,352.428619 315.924622,342.628021 341.360901,332.913818 
	C344.300110,331.791321 346.960815,330.710480 347.477661,326.820282 
	C351.555054,318.658020 355.474152,310.776733 359.221222,302.814484 
	C367.422394,285.387695 375.650543,267.971222 383.551575,250.408356 
	C384.624207,248.024063 383.880554,244.822647 383.944183,241.633530 
	C370.758301,210.026382 357.615417,178.781357 344.421722,147.557816 
	C343.863129,146.235901 342.833710,145.112930 341.799683,143.648376 
	C339.296295,142.045761 337.075043,140.580536 334.728058,139.356400 
	C318.855255,131.077515 302.966248,122.829536 287.055359,114.624084 
	C284.244507,113.174500 281.839813,111.594872 282.584900,107.655838 
	C285.556122,104.563171 288.203247,106.044479 290.940582,107.450966 
	C307.566589,115.993675 324.213318,124.496086 340.853119,133.011948 
	C343.493744,136.055328 345.773102,134.210709 348.166321,132.554352 
	C369.293274,117.932289 390.411865,103.297577 411.626099,88.803001 
	C413.686768,87.395035 416.375000,86.905548 419.137390,85.990616 
	C423.249298,90.012627 420.706390,92.409088 417.337830,94.724998 
	C396.512024,109.042900 375.772186,123.487335 354.839539,137.646912 
	C351.228607,140.089478 350.704681,141.958511 352.529999,145.957657 
	C359.837799,161.968338 366.702454,178.181290 373.997681,194.972656 
	C379.769867,209.160461 385.198059,222.727661 390.881836,236.186966 
	C391.566864,237.809143 393.607300,239.937729 395.066467,239.974655 
	C403.022797,240.175949 410.993805,239.795807 418.959778,239.615631 
	C437.741638,239.365738 456.523132,239.048172 475.305756,238.953186 
	C477.606781,238.941528 479.913879,240.122162 482.498840,241.020111 
	C482.918823,246.198547 479.703888,246.874985 475.830017,246.933380 
	C453.392670,247.271667 430.955444,247.627106 408.519714,248.056335 
	C404.880310,248.125961 401.248535,248.593475 396.812927,248.920090 
	C394.625488,250.002792 392.606110,250.741180 391.945496,252.127167 
	C381.101685,274.878082 370.405273,297.699493 359.741577,320.535797 
	C357.934052,324.406677 356.432861,328.420654 354.790131,332.368500 
	C364.864471,343.877136 374.617676,355.688782 385.107086,366.805786 
	C394.814484,377.093994 405.304688,386.643951 415.462189,396.506622 
	C417.645111,398.626160 420.092377,400.617859 418.020264,404.502625 
	C414.571228,406.639282 412.399750,404.837006 410.035919,402.662750 
	C388.711792,383.048737 368.583557,362.298431 349.663086,339.583405 
	C348.760437,339.347961 348.253815,339.537567 347.747192,339.727203 
	C347.747192,339.727203 347.828796,339.685211 347.400146,339.669891 
	C329.999756,345.809998 312.922424,351.692993 296.093048,358.215759 
	C284.694031,362.633728 273.643555,367.950989 262.437195,372.866028 
	C261.924164,374.487793 260.979340,376.104919 260.961823,377.731995 
	C260.607391,410.656372 260.366302,443.582001 260.064087,476.506989 
	C260.052185,477.805389 259.661438,479.100311 259.242157,480.774536 
	C253.886261,482.404205 252.046158,481.326385 252.064743,476.167053 
	C252.163940,448.625793 252.459930,421.085266 252.633209,393.544128 
	C252.668579,387.922363 252.470047,382.299103 252.207306,375.955872 
	C250.643906,374.221069 249.373932,372.947235 247.843033,372.231720 
	C224.051331,361.111969 200.229401,350.056793 176.391617,339.036133 
	C175.652863,338.694580 174.668930,338.883362 173.799301,338.824890 
	C162.228317,353.825623 150.904877,369.026184 139.006500,383.762543 
	C129.820724,395.139282 119.914749,405.934631 110.324493,416.984558 
	C109.888969,417.486298 109.477882,418.254517 108.937622,418.376404 
	C106.913177,418.833008 104.272911,420.015961 102.904663,419.193848 
	C100.191452,417.563599 101.244873,414.890411 103.085373,412.804382 
	C108.915688,406.196320 114.786377,399.623871 120.612206,393.011932 
	C121.817024,391.644531 122.895782,390.166077 124.438774,388.241455 
	C138.804916,369.875549 152.793991,352.029388 166.655228,334.084503 
	C167.520569,332.964203 167.383591,331.069672 167.536591,329.163666 
	C165.892029,325.444824 164.300476,322.145721 162.975281,318.742859 
	C153.209473,293.666168 143.529892,268.555817 133.695374,243.506226 
	C133.017654,241.780045 131.308426,240.458847 129.630508,238.910751 
	C116.663582,240.409714 104.151344,242.000946 91.624573,243.467941 
	C81.421036,244.662842 71.200089,245.709015 60.986862,246.821152 
	C49.100605,247.801804 37.215458,248.796204 25.327402,249.754562 
	C21.834063,250.036163 18.087126,250.715302 17.248968,245.141388 
	C17.634827,244.040894 17.912657,243.542908 18.190487,243.044907 
z"/>
<path fill="#1E2AC0" opacity="1.000000" stroke="none" 
	d="
M173.843109,339.301117 
	C174.668930,338.883362 175.652863,338.694580 176.391617,339.036133 
	C200.229401,350.056793 224.051331,361.111969 247.843033,372.231720 
	C249.373932,372.947235 250.643906,374.221069 251.994293,375.601410 
	C243.204147,382.535797 233.983429,388.569855 225.808090,395.787933 
	C210.739471,409.092133 196.284775,423.091705 181.296692,437.003113 
	C179.710815,426.327606 177.915131,415.482483 177.197296,404.566528 
	C175.778488,382.990845 174.955978,361.376007 173.843109,339.301117 
z"/>
<path fill="#2327A1" opacity="1.000000" stroke="none" 
	d="
M130.078918,238.949310 
	C131.308426,240.458847 133.017654,241.780045 133.695374,243.506226 
	C143.529892,268.555817 153.209473,293.666168 162.975281,318.742859 
	C164.300476,322.145721 165.892029,325.444824 167.057968,329.074707 
	C141.841125,322.905792 116.926559,316.454193 92.011993,310.002563 
	C92.059372,309.596741 92.106766,309.190857 92.417641,308.234497 
	C101.015175,292.346558 109.345230,277.006927 117.684959,261.672577 
	C121.807091,254.093155 125.947037,246.523422 130.078918,238.949310 
z"/>
<path fill="#050A66" opacity="1.000000" stroke="none" 
	d="
M92.047379,310.387817 
	C116.926559,316.454193 141.841125,322.905792 167.234314,329.446381 
	C167.383591,331.069672 167.520569,332.964203 166.655228,334.084503 
	C152.793991,352.029388 138.804916,369.875549 124.584335,387.927856 
	C122.128105,383.903503 119.607536,379.830444 117.792702,375.464081 
	C109.644768,355.860809 101.680473,336.181030 93.705681,316.506287 
	C92.964035,314.676544 92.614418,312.687897 92.047379,310.387817 
z"/>
<path fill="#050A66" opacity="1.000000" stroke="none" 
	d="
M129.630508,238.910751 
	C125.947037,246.523422 121.807091,254.093155 117.684959,261.672577 
	C109.345230,277.006927 101.015175,292.346558 92.448822,307.929565 
	C90.874580,306.576752 89.153198,305.167084 88.249619,303.350616 
	C79.553444,285.868744 70.990578,268.320496 62.408443,250.782013 
	C61.902199,249.747452 61.558270,248.633453 61.062840,247.188782 
	C71.200089,245.709015 81.421036,244.662842 91.624573,243.467941 
	C104.151344,242.000946 116.663582,240.409714 129.630508,238.910751 
z"/>
<path fill="#050679" opacity="1.000000" stroke="none" 
	d="
M17.849545,243.061417 
	C17.912657,243.542908 17.634827,244.040894 17.190262,244.770355 
	C16.498415,244.779724 15.973297,244.557648 15.220037,244.161453 
	C15.830797,243.684189 16.669699,243.381058 17.849545,243.061417 
z"/>
<path fill="#2327A2" opacity="1.000000" stroke="none" 
	d="
M138.746414,233.197571 
	C138.760010,232.314362 138.491562,231.301987 138.828262,230.566711 
	C148.640289,209.139252 158.512695,187.739441 168.828644,166.361847 
	C170.027023,167.046677 170.702240,167.812897 171.527527,168.347397 
	C199.877106,186.708420 228.238052,205.051926 256.619263,223.363983 
	C257.320709,223.816574 258.269348,223.886063 259.608215,224.284775 
	C259.119080,222.380814 258.870514,221.088013 258.456696,219.850464 
	C250.113205,194.900497 241.832169,169.929108 233.342651,145.028839 
	C230.779449,137.510849 227.627350,130.193634 224.744980,122.784447 
	C232.288071,119.119072 239.945526,115.662827 247.294800,111.643089 
	C249.160995,110.622360 250.046844,107.809250 251.367188,105.461517 
	C255.619446,103.741028 259.887665,102.378746 264.808411,101.098450 
	C265.980469,101.475136 266.500000,101.769844 267.026581,102.528091 
	C267.033661,141.890244 267.033661,180.788849 267.033661,219.687454 
	C267.422394,220.078247 267.811157,220.469040 268.199890,220.859833 
	C269.544891,218.956863 270.663849,216.833740 272.269745,215.184875 
	C289.091919,197.912643 305.994934,180.719147 322.869171,163.497574 
	C329.262604,156.972565 335.639343,150.431198 342.023621,143.897278 
	C342.833710,145.112930 343.863129,146.235901 344.421722,147.557816 
	C357.615417,178.781357 370.758301,210.026382 383.477661,241.639938 
	C370.927582,241.358795 358.800354,240.850754 346.695251,240.019791 
	C324.805817,238.517227 302.932983,236.772354 281.043549,235.269653 
	C278.308868,235.081924 275.515472,235.749329 272.449707,236.229095 
	C271.799255,237.166229 271.205261,237.871643 271.133453,238.626709 
	C269.720612,253.483429 268.398407,268.348755 266.995667,283.206482 
	C265.515045,298.889038 263.978394,314.566345 262.449066,330.244263 
	C261.322327,341.794952 260.167999,353.342987 259.025970,364.892181 
	C257.239044,365.221588 255.075623,366.376068 253.721008,365.757965 
	C229.145660,354.544403 204.667664,343.117432 180.133911,331.198364 
	C207.355621,299.687744 233.217728,267.610046 258.075775,233.791550 
	C256.101196,233.398727 255.313004,233.104568 254.524902,233.104874 
	C215.932068,233.119843 177.339233,233.160110 138.746414,233.197571 
z"/>
<path fill="#050A66" opacity="1.000000" stroke="none" 
	d="
M168.551239,146.005402 
	C156.242996,173.542450 143.467834,201.077972 130.200684,228.623276 
	C128.706787,226.918503 127.691467,225.211609 126.704994,223.488205 
	C112.534668,198.732452 98.368233,173.974487 84.200859,149.217041 
	C85.665649,148.811905 87.123444,148.089767 88.596474,148.057205 
	C94.565872,147.925278 100.544296,148.154022 106.511543,147.980286 
	C127.037598,147.382690 147.560349,146.671661 168.551239,146.005402 
z"/>
<path fill="#2327A1" opacity="1.000000" stroke="none" 
	d="
M84.119766,149.595184 
	C98.368233,173.974487 112.534668,198.732452 126.704994,223.488205 
	C127.691467,225.211609 128.706787,226.918503 129.969391,228.880737 
	C124.780556,230.232651 119.375595,231.704086 113.873093,232.372406 
	C97.235466,234.393158 80.559990,236.102264 63.502342,237.515839 
	C65.381989,227.718750 67.658554,218.338669 69.935120,208.958572 
	C71.023247,204.588684 72.111366,200.218781 73.246361,195.433594 
	C76.490257,181.789337 79.692238,168.561584 82.878426,155.330032 
	C83.306023,153.554306 83.653885,151.759354 84.119766,149.595184 
z"/>
<path fill="#2326A1" opacity="1.000000" stroke="none" 
	d="
M214.098572,117.960342 
	C203.095642,123.876038 191.758606,129.751678 180.262192,135.296890 
	C179.101288,135.856827 176.368011,134.950943 175.393829,133.830399 
	C163.848572,120.550491 152.499146,107.100311 141.012772,93.365158 
	C147.960983,95.410904 155.000717,97.768776 162.027298,100.165222 
	C179.261200,106.042946 196.489059,111.938431 214.098572,117.960342 
z"/>
<path fill="#000003" opacity="1.000000" stroke="none" 
	d="
M267.019501,102.064552 
	C266.500000,101.769844 265.980469,101.475136 265.188232,101.050819 
	C264.516113,98.243492 264.116699,95.565773 263.654694,92.465195 
	C264.371674,78.120934 265.142578,64.199036 265.944885,50.278954 
	C266.020721,48.963043 265.895325,47.373306 266.576599,46.420876 
	C267.428680,45.229622 269.189850,43.687859 270.248779,43.893398 
	C271.636871,44.162823 273.398468,45.803986 273.782013,47.191650 
	C274.379608,49.353535 273.953247,51.798447 274.012390,54.571037 
	C273.358337,68.669708 272.652740,82.320763 271.916351,96.773781 
	C271.538483,98.680397 271.191406,99.785042 270.525818,101.000168 
	C269.144714,101.428619 268.082092,101.746590 267.019501,102.064552 
z"/>
<path fill="#2326A1" opacity="1.000000" stroke="none" 
	d="
M140.834137,92.859436 
	C140.699402,92.872528 140.380554,92.688759 139.929901,92.252365 
	C140.082077,92.220673 140.366043,92.441612 140.834137,92.859436 
z"/>
<path fill="#05067A" opacity="1.000000" stroke="none" 
	d="
M419.071930,239.313446 
	C410.993805,239.795807 403.022797,240.175949 395.066467,239.974655 
	C393.607300,239.937729 391.566864,237.809143 390.881836,236.186966 
	C385.198059,222.727661 379.769867,209.160461 374.192963,195.273224 
	C408.075104,183.769501 442.027863,172.615921 475.984680,161.474747 
	C477.718903,160.905746 479.488159,160.443466 481.634949,159.917847 
	C477.805756,164.980011 473.491882,169.983383 469.375763,175.144440 
	C453.212921,195.410248 437.107941,215.722183 421.003571,236.034500 
	C420.286438,236.939026 419.785645,238.015076 419.071930,239.313446 
z"/>
<path fill="#616ADC" opacity="1.000000" stroke="none" 
	d="
M270.844299,100.889679 
	C271.191406,99.785042 271.538483,98.680397 271.968994,97.232979 
	C297.455627,82.559296 322.858795,68.228386 348.194489,53.935543 
	C345.714111,80.286606 343.276581,106.182213 340.846100,132.544891 
	C324.213318,124.496086 307.566589,115.993675 290.940582,107.450966 
	C288.203247,106.044479 285.556122,104.563171 282.360168,107.370499 
	C278.201752,105.182068 274.523041,103.035873 270.844299,100.889679 
z"/>
<path fill="#616ADB" opacity="1.000000" stroke="none" 
	d="
M355.147095,332.217590 
	C356.432861,328.420654 357.934052,324.406677 359.741577,320.535797 
	C370.405273,297.699493 381.101685,274.878082 391.945496,252.127167 
	C392.606110,250.741180 394.625488,250.002792 396.386688,249.011871 
	C410.080688,266.834503 423.400665,284.608368 436.844116,302.697388 
	C436.967560,303.012543 436.767792,303.196167 436.738434,303.328369 
	C408.755768,310.483734 381.744263,320.180542 355.147095,332.217590 
z"/>
<path fill="#1E2AC0" opacity="1.000000" stroke="none" 
	d="
M262.655579,373.159424 
	C273.643555,367.950989 284.694031,362.633728 296.093048,358.215759 
	C312.922424,351.692993 329.999756,345.809998 347.354584,339.664429 
	C346.303406,349.488037 344.948669,359.314148 343.418091,369.112823 
	C340.348328,388.765472 337.182434,408.403137 334.082214,428.462463 
	C334.108246,428.877991 333.622375,428.908203 333.380096,428.920654 
	C307.947449,412.680145 285.233185,393.291290 262.655579,373.159424 
z"/>
<path fill="#1E2AC0" opacity="1.000000" stroke="none" 
	d="
M348.059692,339.760071 
	C348.253815,339.537567 348.760437,339.347961 349.410400,339.304260 
	C349.159882,339.564453 348.766052,339.678711 348.059692,339.760071 
z"/>
<path fill="#050679" opacity="1.000000" stroke="none" 
	d="
M69.597099,209.048584 
	C67.658554,218.338669 65.381989,227.718750 63.077576,237.478195 
	C48.988152,239.209030 34.926575,240.560501 20.443134,241.918854 
	C21.014484,240.845520 21.837536,239.506531 23.026823,238.724548 
	C37.352875,229.304825 51.727951,219.959579 66.110718,210.626465 
	C67.075676,210.000290 68.205788,209.628632 69.597099,209.048584 
z"/>
<path fill="#05067A" opacity="1.000000" stroke="none" 
	d="
M138.834534,233.554871 
	C177.339233,233.160110 215.932068,233.119843 254.524902,233.104874 
	C255.313004,233.104568 256.101196,233.398727 258.075775,233.791550 
	C233.217728,267.610046 207.355621,299.687744 179.888000,330.953369 
	C178.053940,329.267273 175.804047,327.538055 174.902267,325.272308 
	C162.799255,294.862640 150.884308,264.378113 138.834534,233.554871 
z"/>
<path fill="#1E2AC0" opacity="1.000000" stroke="none" 
	d="
M259.369934,364.838715 
	C260.167999,353.342987 261.322327,341.794952 262.449066,330.244263 
	C263.978394,314.566345 265.515045,298.889038 266.995667,283.206482 
	C268.398407,268.348755 269.720612,253.483429 271.133453,238.626709 
	C271.205261,237.871643 271.799255,237.166229 272.667389,236.503036 
	C284.558136,250.840073 295.780182,265.235779 307.345123,279.350616 
	C320.483917,295.386353 333.929230,311.170837 347.241333,327.064545 
	C346.960815,330.710480 344.300110,331.791321 341.360901,332.913818 
	C315.924622,342.628021 290.521301,352.428619 265.121063,362.236908 
	C263.267090,362.952789 261.513916,363.929688 259.369934,364.838715 
z"/>
<path fill="#05067A" opacity="1.000000" stroke="none" 
	d="
M347.477661,326.820282 
	C333.929230,311.170837 320.483917,295.386353 307.345123,279.350616 
	C295.780182,265.235779 284.558136,250.840073 272.966980,236.294434 
	C275.515472,235.749329 278.308868,235.081924 281.043549,235.269653 
	C302.932983,236.772354 324.805817,238.517227 346.695251,240.019791 
	C358.800354,240.850754 370.927582,241.358795 383.511353,242.005997 
	C383.880554,244.822647 384.624207,248.024063 383.551575,250.408356 
	C375.650543,267.971222 367.422394,285.387695 359.221222,302.814484 
	C355.474152,310.776733 351.555054,318.658020 347.477661,326.820282 
z"/>
<path fill="#05067A" opacity="1.000000" stroke="none" 
	d="
M270.525818,101.000168 
	C274.523041,103.035873 278.201752,105.182068 282.105164,107.613602 
	C281.839813,111.594872 284.244507,113.174500 287.055359,114.624084 
	C302.966248,122.829536 318.855255,131.077515 334.728058,139.356400 
	C337.075043,140.580536 339.296295,142.045761 341.799683,143.648376 
	C335.639343,150.431198 329.262604,156.972565 322.869171,163.497574 
	C305.994934,180.719147 289.091919,197.912643 272.269745,215.184875 
	C270.663849,216.833740 269.544891,218.956863 268.199890,220.859833 
	C267.811157,220.469040 267.422394,220.078247 267.033661,219.687454 
	C267.033661,180.788849 267.033661,141.890244 267.026581,102.528091 
	C268.082092,101.746590 269.144714,101.428619 270.525818,101.000168 
z"/>
<path fill="#1E2AC0" opacity="1.000000" stroke="none" 
	d="
M224.401566,122.864395 
	C227.627350,130.193634 230.779449,137.510849 233.342651,145.028839 
	C241.832169,169.929108 250.113205,194.900497 258.456696,219.850464 
	C258.870514,221.088013 259.119080,222.380814 259.608215,224.284775 
	C258.269348,223.886063 257.320709,223.816574 256.619263,223.363983 
	C228.238052,205.051926 199.877106,186.708420 171.527527,168.347397 
	C170.702240,167.812897 170.027023,167.046677 169.073700,166.110260 
	C171.652893,160.010666 174.171082,154.035873 177.358871,148.442734 
	C178.649658,146.177979 181.141449,144.235580 183.530975,143.019180 
	C196.965164,136.180496 210.534760,129.607788 224.401566,122.864395 
z"/>
</svg>